<svg width="15" height="18" viewBox="0 0 15 18" fill="none" xmlns="http://www.w3.org/2000/svg">
<path d="M10.2205 2.87709C9.59627 3.61457 8.5528 4.16085 7.7236 4.16085C7.62112 4.16085 7.52795 4.14264 7.47205 4.13354C7.46273 4.08801 7.43478 3.95144 7.43478 3.80577C7.43478 2.87709 7.91925 1.94841 8.45031 1.36571C9.1118 0.60091 10.2298 0.0364188 11.1615 0C11.1801 0.100152 11.1894 0.227618 11.1894 0.355083C11.1894 1.28376 10.7888 2.20334 10.2205 2.87709ZM10.8727 4.35205C11.3944 4.35205 13.2857 4.40668 14.5248 6.14568C14.413 6.22762 12.5404 7.26555 12.5404 9.57815C12.5404 12.2458 14.9255 13.2018 15 13.22C14.9907 13.2838 14.618 14.5129 13.7422 15.7785C12.9503 16.8801 12.1211 18 10.8727 18C9.61491 18 9.28882 17.2807 7.85404 17.2807C6.43789 17.2807 5.93478 18 4.79814 18C3.64286 18 2.84161 16.9894 1.92857 15.7329C0.857143 14.2489 0 11.9454 0 9.76024C0 6.26404 2.32919 4.35205 4.63043 4.35205C5.84162 4.35205 6.84783 5.18058 7.62112 5.18058C8.34783 5.18058 9.48447 4.35205 10.8727 4.35205Z" fill="white"/>
</svg>
