<svg width="18" height="18" viewBox="0 0 18 18" fill="none" xmlns="http://www.w3.org/2000/svg">
<path d="M16.6828 12.8944C17.5109 11.3165 17.812 9.43812 17.5109 7.48459C16.9086 3.95322 13.9726 1.02293 10.4344 0.496981C4.56243 -0.479781 -0.481443 4.5543 0.497218 10.4149C1.09947 13.9462 3.88489 16.8765 7.49841 17.4776C9.45574 17.8533 11.2625 17.4776 12.8434 16.7263H12.9187L16.5322 17.3274C16.9839 17.4025 17.3603 17.0268 17.285 16.576L16.6828 12.9695V12.8944ZM12.8434 15.1484C12.6928 15.0733 12.5423 15.1484 12.467 15.2236C11.4131 15.8246 10.2838 16.1252 9.00405 16.1252C5.0894 16.1252 1.85229 12.8944 1.85229 8.9873C1.85229 5.08025 5.0894 1.84942 9.00405 1.84942C12.9187 1.84942 16.1558 5.08025 16.1558 8.9873C16.1558 10.2646 15.8547 11.4668 15.2524 12.5187C15.1771 12.5938 15.1771 12.7441 15.1771 12.8944L15.6288 15.6744L12.8434 15.1484Z" fill="white"/>
<path d="M6.75 10.5C7.57843 10.5 8.25 9.82843 8.25 9C8.25 8.17157 7.57843 7.5 6.75 7.5C5.92157 7.5 5.25 8.17157 5.25 9C5.25 9.82843 5.92157 10.5 6.75 10.5Z" fill="white"/>
<path d="M11.25 10.5C12.0784 10.5 12.75 9.82843 12.75 9C12.75 8.17157 12.0784 7.5 11.25 7.5C10.4216 7.5 9.75 8.17157 9.75 9C9.75 9.82843 10.4216 10.5 11.25 10.5Z" fill="white"/>
</svg>
