<svg width="17" height="16" viewBox="0 0 17 16" fill="none" xmlns="http://www.w3.org/2000/svg">
<path fill-rule="evenodd" clip-rule="evenodd" d="M16.5 8.18185C16.5 7.61458 16.4481 7.06912 16.3516 6.54548H8.66326V9.64004H13.0566C12.8673 10.64 12.2922 11.4873 11.4276 12.0546V14.0619H14.0659C15.6095 12.6691 16.5 10.6182 16.5 8.18185Z" fill="#4285F4"/>
<path fill-rule="evenodd" clip-rule="evenodd" d="M8.66294 16C10.867 16 12.7152 15.2837 14.0659 14.0619L11.4276 12.0546C10.6967 12.5346 9.76128 12.8182 8.66294 12.8182C6.53678 12.8182 4.73715 11.4109 4.09522 9.51998H1.36794V11.5927C2.71117 14.2073 5.47185 16 8.66294 16Z" fill="#34A853"/>
<path fill-rule="evenodd" clip-rule="evenodd" d="M4.09522 9.51998C3.93195 9.03997 3.83952 8.52725 3.83952 7.99998C3.83952 7.4727 3.93229 6.95997 4.09555 6.47997V4.40723H1.36828C0.815399 5.48724 0.5 6.70906 0.5 7.99998C0.5 9.29089 0.815068 10.5127 1.36794 11.5927L4.09522 9.51998Z" fill="#FBBC05"/>
<path fill-rule="evenodd" clip-rule="evenodd" d="M8.66294 3.18183C9.86146 3.18183 10.9375 3.58547 11.7835 4.3782L14.1249 2.08364C12.7112 0.79273 10.8633 0 8.66294 0C5.47185 0 2.71151 1.79268 1.36828 4.40723L4.09555 6.47997C4.73748 4.58905 6.53678 3.18183 8.66294 3.18183Z" fill="#EA4335"/>
</svg>
