<svg width="43" height="30" viewBox="0 0 43 30" fill="none" xmlns="http://www.w3.org/2000/svg">
<path d="M22.8882 18.9704C22.8233 18.92 22.7404 18.8732 22.6502 18.8264C21.9327 18.477 21.0781 18.477 20.3606 18.8264C20.2705 18.8696 20.1875 18.92 20.1226 18.9704C19.7404 19.2658 19.6647 19.6439 19.9712 20.0077C20.3245 20.4183 20.714 20.8 21.1142 21.1674C21.244 21.2862 21.3738 21.3439 21.5072 21.3403C21.6406 21.3403 21.7704 21.2862 21.9002 21.1674C22.3005 20.8 22.6899 20.4183 23.0432 20.0077C23.3533 19.6475 23.2776 19.2694 22.8918 18.9704H22.8882Z" fill="#FFA022"/>
<path d="M42.4563 29.1701C42.4383 29.1196 42.4203 29.0692 42.3986 29.0188C41.6811 27.2648 40.9564 25.5109 40.246 23.7533C40.1703 23.5696 40.1379 23.3499 40.1487 23.1518C40.1739 22.5 40.2388 21.8481 40.2713 21.1962C40.4588 17.7459 39.8638 14.4361 38.4179 11.2883C36.781 7.72635 34.3868 4.81989 31.0191 2.75259C28.0191 0.908587 24.8425 -0.0314205 21.5036 0.000993571C18.1647 -0.0350221 14.9881 0.908587 11.9882 2.75259C8.62044 4.81989 6.22265 7.72635 4.58927 11.2883C3.14338 14.4361 2.54844 17.7423 2.73594 21.1962C2.77199 21.8481 2.83329 22.5 2.85853 23.1518C2.86574 23.3499 2.83329 23.5696 2.76118 23.7533C2.05085 25.5109 1.32971 27.2648 0.608572 29.0188C0.586938 29.0692 0.56891 29.1196 0.550881 29.1701C0.385019 29.6743 0.633812 30.0488 1.16385 29.9948C1.68307 29.9408 2.21671 29.8508 2.69988 29.6671C4.50633 28.9792 5.85487 27.769 6.71663 26.0259C7.09162 25.2732 7.11326 24.5565 6.73105 23.7893C6.32361 22.961 5.92337 22.1146 5.64934 21.2358C4.37653 17.1408 5.20945 13.4492 7.9642 10.197C9.08557 8.87525 10.5062 7.95685 12.2406 7.65432C14.5807 7.24734 16.6071 7.93884 18.3198 9.55594C19.708 10.8705 20.4796 12.5416 20.9555 14.3604C21.0817 14.8394 21.4964 16.9247 21.5 16.9103C21.5036 16.9247 21.9183 14.8394 22.0445 14.3604C22.5204 12.5452 23.292 10.8705 24.6802 9.55594C26.3893 7.93884 28.4193 7.24734 30.7594 7.65432C32.4938 7.95685 33.9144 8.87525 35.0358 10.197C37.7906 13.4492 38.6235 17.1372 37.3507 21.2358C37.0766 22.1146 36.68 22.961 36.2689 23.7893C35.8904 24.5601 35.912 25.2732 36.2834 26.0259C37.1487 27.769 38.4937 28.9828 40.3001 29.6671C40.7833 29.8508 41.3169 29.9408 41.8361 29.9948C42.3662 30.0488 42.615 29.6743 42.4491 29.1701H42.4563Z" fill="white"/>
<path d="M29.5623 13.1503C27.59 13.1503 25.9891 14.7494 25.9891 16.7194C25.9891 18.6895 27.59 20.2886 29.5623 20.2886C31.5347 20.2886 33.1356 18.6895 33.1356 16.7194C33.1356 14.7494 31.5347 13.1503 29.5623 13.1503ZM30.5215 17.0868C29.7643 17.0868 29.1477 16.4709 29.1477 15.7146C29.1477 14.9583 29.7643 14.3424 30.5215 14.3424C31.2787 14.3424 31.8952 14.9583 31.8952 15.7146C31.8952 16.4709 31.2787 17.0868 30.5215 17.0868Z" fill="white"/>
<path d="M33.6981 22.1218C34.2039 22.1218 34.6139 21.7122 34.6139 21.207C34.6139 20.7018 34.2039 20.2922 33.6981 20.2922C33.1923 20.2922 32.7822 20.7018 32.7822 21.207C32.7822 21.7122 33.1923 22.1218 33.6981 22.1218Z" fill="white"/>
<path d="M13.4449 20.2922C15.4172 20.2922 17.0181 18.6931 17.0181 16.7231C17.0181 14.753 15.4172 13.1539 13.4449 13.1539C11.4725 13.1539 9.87162 14.753 9.87162 16.7231C9.87162 18.6931 11.4725 20.2922 13.4449 20.2922ZM14.4004 17.0868C13.6432 17.0868 13.0266 16.4709 13.0266 15.7146C13.0266 14.9583 13.6432 14.3424 14.4004 14.3424C15.1576 14.3424 15.7741 14.9583 15.7741 15.7146C15.7741 16.4709 15.1576 17.0868 14.4004 17.0868Z" fill="white"/>
<path d="M9.30913 22.1218C9.81494 22.1218 10.225 21.7122 10.225 21.207C10.225 20.7018 9.81494 20.2922 9.30913 20.2922C8.80332 20.2922 8.39328 20.7018 8.39328 21.207C8.39328 21.7122 8.80332 22.1218 9.30913 22.1218Z" fill="white"/>
</svg>
