<svg width="168" height="120" viewBox="0 0 168 120" fill="none" xmlns="http://www.w3.org/2000/svg">
<path d="M89.5528 75.8817C89.2932 75.68 88.9614 75.4927 88.6009 75.3055C85.7307 73.9081 82.3125 73.9081 79.4424 75.3055C79.0818 75.4783 78.7501 75.68 78.4905 75.8817C76.9617 77.063 76.6588 78.5757 77.8847 80.0307C79.2982 81.673 80.8558 83.2001 82.4568 84.6695C82.976 85.1449 83.4952 85.3754 84.0288 85.361C84.5625 85.361 85.0817 85.1449 85.6009 84.6695C87.2019 83.2001 88.7595 81.673 90.173 80.0307C91.4133 78.5901 91.1104 77.0774 89.5672 75.8817H89.5528Z" fill="#FFA022"/>
<path d="M167.825 116.68C167.753 116.479 167.681 116.277 167.595 116.075C164.724 109.059 161.825 102.043 158.984 95.0132C158.681 94.2785 158.551 93.3997 158.595 92.6074C158.696 89.9998 158.955 87.3923 159.085 84.7848C159.835 70.9836 157.455 57.7442 151.672 45.1532C145.124 30.9054 135.547 19.2795 122.076 11.0104C110.076 3.63435 97.3699 -0.125682 84.0144 0.00397428C70.6589 -0.140088 57.9524 3.63435 45.9526 11.0104C32.4818 19.2795 22.8906 30.9054 16.3571 45.1532C10.5735 57.7442 8.19376 70.9692 8.94374 84.7848C9.08797 87.3923 9.33316 89.9998 9.43412 92.6074C9.46296 93.3997 9.33316 94.2785 9.0447 95.0132C6.20341 102.043 3.31885 109.059 0.434289 116.075C0.347752 116.277 0.275638 116.479 0.203524 116.68C-0.459925 118.697 0.535249 120.195 2.6554 119.979C4.73228 119.763 6.86686 119.403 8.79951 118.668C16.0253 115.917 21.4195 111.076 24.8665 104.104C26.3665 101.093 26.453 98.2258 24.9242 95.1573C23.2944 91.8439 21.6935 88.4584 20.5974 84.9433C15.5061 68.5633 18.8378 53.7969 29.8568 40.7881C34.3423 35.501 40.0249 31.8274 46.9622 30.6173C56.3226 28.9894 64.4283 31.7554 71.2791 38.2238C76.8319 43.4821 79.9183 50.1665 81.8222 57.4417C82.327 59.3577 83.9856 67.699 84 67.6413C84.0144 67.699 85.673 59.3577 86.1778 57.4417C88.0816 50.181 91.1681 43.4821 96.7209 38.2238C103.557 31.7554 111.677 28.9894 121.038 30.6173C127.975 31.8274 133.658 35.501 138.143 40.7881C149.162 53.7969 152.494 68.5489 147.403 84.9433C146.307 88.4584 144.72 91.8439 143.076 95.1573C141.561 98.2402 141.648 101.093 143.133 104.104C146.595 111.076 151.975 115.931 159.2 118.668C161.133 119.403 163.268 119.763 165.345 119.979C167.465 120.195 168.46 118.697 167.796 116.68H167.825Z" fill="black"/>
<path d="M116.249 52.6012C108.36 52.6012 101.956 58.9976 101.956 66.8778C101.956 74.758 108.36 81.1544 116.249 81.1544C124.139 81.1544 130.542 74.758 130.542 66.8778C130.542 58.9976 124.139 52.6012 116.249 52.6012ZM120.086 68.3472C117.057 68.3472 114.591 65.8838 114.591 62.8585C114.591 59.8332 117.057 57.3697 120.086 57.3697C123.115 57.3697 125.581 59.8332 125.581 62.8585C125.581 65.8838 123.115 68.3472 120.086 68.3472Z" fill="black"/>
<path d="M132.792 88.4872C134.816 88.4872 136.456 86.8489 136.456 84.828C136.456 82.8071 134.816 81.1688 132.792 81.1688C130.769 81.1688 129.129 82.8071 129.129 84.828C129.129 86.8489 130.769 88.4872 132.792 88.4872Z" fill="black"/>
<path d="M51.7795 81.1688C59.6687 81.1688 66.0725 74.7724 66.0725 66.8922C66.0725 59.012 59.6687 52.6156 51.7795 52.6156C43.8902 52.6156 37.4865 59.012 37.4865 66.8922C37.4865 74.7724 43.8902 81.1688 51.7795 81.1688ZM55.6015 68.3472C52.5727 68.3472 50.1064 65.8838 50.1064 62.8585C50.1064 59.8332 52.5727 57.3697 55.6015 57.3697C58.6303 57.3697 61.0966 59.8332 61.0966 62.8585C61.0966 65.8838 58.6303 68.3472 55.6015 68.3472Z" fill="black"/>
<path d="M35.2365 88.4872C37.2597 88.4872 38.8999 86.8489 38.8999 84.828C38.8999 82.8071 37.2597 81.1688 35.2365 81.1688C33.2133 81.1688 31.5731 82.8071 31.5731 84.828C31.5731 86.8489 33.2133 88.4872 35.2365 88.4872Z" fill="black"/>
</svg>
