<svg width="18" height="18" viewBox="0 0 18 18" fill="none" xmlns="http://www.w3.org/2000/svg">
<path d="M17.1035 0.561584L10.0798 5.79999L11.3787 2.7094L17.1035 0.561584Z" fill="#E2761B"/>
<path d="M0.889141 0.561584L7.85635 5.84961L6.62103 2.7094L0.889141 0.561584ZM14.5765 12.7042L12.7059 15.5821L16.7083 16.6879L17.8589 12.768L14.5765 12.7042ZM0.147949 12.768L1.2915 16.6879L5.29394 15.5821L3.42331 12.7042L0.147949 12.768Z" fill="#E4761B"/>
<path d="M5.06795 7.84146L3.95264 9.53562L7.92684 9.71283L7.78566 5.42428L5.06795 7.84146ZM12.9246 7.84146L10.1716 5.37466L10.0798 9.71283L14.047 9.53562L12.9246 7.84146ZM5.29384 15.5821L7.67977 14.4125L5.61855 12.7963L5.29384 15.5821ZM10.3128 14.4125L12.7058 15.5821L12.374 12.7963L10.3128 14.4125Z" fill="#E4761B"/>
<path d="M12.7059 15.5821L10.3129 14.4125L10.5035 15.9791L10.4823 16.6383L12.7059 15.5821ZM5.29395 15.5821L7.51752 16.6383L7.5034 15.9791L7.67988 14.4125L5.29395 15.5821Z" fill="#D7C1B3"/>
<path d="M7.55289 11.7614L5.56226 11.173L6.96699 10.528L7.55289 11.7614ZM10.44 11.7614L11.0259 10.528L12.4377 11.173L10.44 11.7614Z" fill="#233447"/>
<path d="M5.29397 15.5821L5.6328 12.7042L3.42334 12.768L5.29397 15.5821ZM12.3671 12.7042L12.7059 15.5821L14.5765 12.768L12.3671 12.7042ZM14.0471 9.53564L10.0799 9.71286L10.447 11.7614L11.0329 10.528L12.4447 11.1731L14.0471 9.53564ZM5.56221 11.1731L6.974 10.528L7.55284 11.7614L7.92696 9.71286L3.95276 9.53564L5.56221 11.1731Z" fill="#CD6116"/>
<path d="M3.95264 9.53564L5.61855 12.7964L5.56208 11.1731L3.95264 9.53564ZM12.4446 11.1731L12.374 12.7964L14.047 9.53564L12.4446 11.1731ZM7.92684 9.71286L7.55271 11.7614L8.0186 14.1786L8.12449 10.9959L7.92684 9.71286ZM10.0798 9.71286L9.88923 10.9888L9.97394 14.1786L10.4469 11.7614L10.0798 9.71286Z" fill="#E4751F"/>
<path d="M10.4471 11.7614L9.97411 14.1786L10.3129 14.4125L12.3742 12.7963L12.4448 11.1731L10.4471 11.7614ZM5.56226 11.1731L5.61873 12.7963L7.67995 14.4125L8.01878 14.1786L7.55289 11.7614L5.56226 11.1731Z" fill="#F6851B"/>
<path d="M10.4823 16.6383L10.5035 15.9791L10.327 15.8231H7.66576L7.5034 15.9791L7.51752 16.6383L5.29395 15.5821L6.07043 16.2201L7.64458 17.3188H10.3482L11.9294 16.2201L12.7059 15.5821L10.4823 16.6383Z" fill="#C0AD9E"/>
<path d="M10.3129 14.4125L9.97406 14.1786H8.01872L7.67989 14.4125L7.50342 15.9791L7.66577 15.8232H10.327L10.5035 15.9791L10.3129 14.4125Z" fill="#161616"/>
<path d="M17.4001 6.14024L18.0001 3.24813L17.1036 0.561584L10.3129 5.62278L12.9247 7.84148L16.6166 8.92602L17.4354 7.96907L17.0825 7.71389L17.6472 7.19643L17.2095 6.85618L17.7742 6.42378L17.4001 6.14024ZM-0.000244141 3.24813L0.599768 6.14024L0.218584 6.42378L0.783302 6.85618L0.352704 7.19643L0.917422 7.71389L0.564474 7.96907L1.37626 8.92602L5.0681 7.84148L7.67992 5.62278L0.889186 0.561584L-0.000244141 3.24813Z" fill="#763D16"/>
<path d="M16.6165 8.926L12.9247 7.84146L14.0471 9.53561L12.3741 12.7963L14.5765 12.768H17.8589L16.6165 8.926ZM5.06805 7.84146L1.37621 8.926L0.147949 12.768H3.42331L5.61865 12.7963L3.95273 9.53561L5.06805 7.84146ZM10.0799 9.71282L10.3129 5.62276L11.3858 2.70938H6.62103L7.67987 5.62276L7.92694 9.71282L8.01164 11.0029L8.0187 14.1786H9.97404L9.98815 11.0029L10.0799 9.71282Z" fill="#F6851B"/>
</svg>
