<svg width="15" height="12" viewBox="0 0 15 12" fill="none" xmlns="http://www.w3.org/2000/svg">
<path d="M0.818255 10.6294C0.818255 10.0029 0.683999 7.53032 2.63444 5.5687C3.94716 4.24852 5.91177 4.01954 8.26124 3.91512V1.26743C8.26124 0.523739 9.14349 0.13292 9.69429 0.632621L14.4426 4.94039C14.8149 5.2782 14.8179 5.86247 14.4491 6.20408L9.70078 10.6015C9.15207 11.1097 8.26124 10.7205 8.26124 9.97263V7.35206C6.76951 7.39308 5.70693 7.48797 4.74151 7.79511C2.87555 8.38873 1.76831 10.9343 1.46973 11.7096C1.41823 11.8433 1.2907 11.9347 1.14742 11.9347V11.9347C0.963566 11.9347 0.814582 11.7857 0.81516 11.6018C0.816225 11.2634 0.818255 10.8743 0.818255 10.6294Z" fill="white"/>
</svg>
