<svg width="21" height="18" viewBox="0 0 21 18" fill="none" xmlns="http://www.w3.org/2000/svg">
<path d="M9.73257 2.48245V0.774098C9.73257 0.355907 10.0786 0 10.4956 0C10.9125 0 11.2674 0.355907 11.2674 0.774098V2.48245C11.2674 2.90064 10.9214 3.25655 10.4956 3.25655C10.0786 3.25655 9.73257 2.90064 9.73257 2.48245ZM4.2763 5.38309L3.06971 4.17301C2.77693 3.87049 2.77693 3.39891 3.06971 3.09639C3.37136 2.79387 3.86819 2.79387 4.15209 3.09639L5.34981 4.30648C5.64259 4.6001 5.65146 5.08057 5.34981 5.38309C5.05703 5.68562 4.56907 5.67672 4.2763 5.38309ZM15.6324 4.30648L16.8479 3.09639C17.1407 2.79387 17.6109 2.79387 17.9214 3.09639C18.2142 3.39891 18.2142 3.87049 17.9214 4.17301L16.706 5.38309C16.4132 5.67672 15.943 5.68562 15.6324 5.38309C15.3308 5.08057 15.3397 4.6001 15.6324 4.30648ZM17.3093 18H3.673C3.28264 18 2.97212 17.6797 2.97212 17.2882C2.97212 16.8878 3.28264 16.5586 3.673 16.5586H4.77313V10.6594C4.77313 7.41176 7.26616 4.90262 10.4956 4.90262C13.7338 4.90262 16.2269 7.41176 16.2269 10.6594V16.5586H17.3093C17.7085 16.5586 18.0368 16.8878 18.0368 17.2882C18.0368 17.6797 17.7085 18 17.3093 18ZM11.2142 10.8552V16.5586H14.7985V10.6594C14.7985 8.20366 12.9442 6.33515 10.4956 6.33515C8.05577 6.33515 6.20152 8.20366 6.20152 10.6594V16.5586H9.79468V10.8552C9.79468 10.4637 10.1052 10.1345 10.4956 10.1345C10.8859 10.1345 11.2142 10.4637 11.2142 10.8552ZM2.45754 11.3H0.754119C0.346008 11.3 0 10.9441 0 10.5437C0 10.1256 0.346008 9.76965 0.754119 9.76965H2.45754C2.87452 9.76965 3.23828 10.1167 3.23828 10.5437C3.23828 10.953 2.87452 11.3 2.45754 11.3ZM20.2281 11.3H18.5247C18.1166 11.3 17.7617 10.953 17.7617 10.5437C17.7617 10.1167 18.1166 9.76965 18.5247 9.76965H20.2281C20.6451 9.76965 21 10.1256 21 10.5437C21 10.9441 20.6451 11.3 20.2281 11.3Z" fill="#FF1640"/>
</svg>
